<svg width="2584" height="1239" xmlns="http://www.w3.org/2000/svg" xmlns:xlink="http://www.w3.org/1999/xlink" overflow="hidden"><defs><clipPath id="clip0"><rect x="1866" y="104" width="2584" height="1239"/></clipPath><clipPath id="clip1"><rect x="1866" y="105" width="2582" height="1235"/></clipPath><clipPath id="clip2"><rect x="1866" y="105" width="2582" height="1235"/></clipPath><clipPath id="clip3"><rect x="1866" y="105" width="2582" height="1235"/></clipPath><clipPath id="clip4"><rect x="1866" y="105" width="2582" height="1235"/></clipPath><clipPath id="clip5"><rect x="2258" y="302" width="2099" height="799"/></clipPath><clipPath id="clip6"><rect x="1866" y="105" width="2582" height="1235"/></clipPath><clipPath id="clip7"><rect x="1866" y="105" width="2582" height="1235"/></clipPath><clipPath id="clip8"><rect x="1866" y="105" width="2582" height="1235"/></clipPath><clipPath id="clip9"><rect x="1866" y="105" width="2582" height="1235"/></clipPath><clipPath id="clip10"><rect x="1866" y="105" width="2582" height="1235"/></clipPath><clipPath id="clip11"><rect x="1866" y="105" width="2582" height="1235"/></clipPath><clipPath id="clip12"><rect x="1866" y="105" width="2582" height="1235"/></clipPath><clipPath id="clip13"><rect x="1866" y="105" width="2582" height="1235"/></clipPath><clipPath id="clip14"><rect x="1866" y="105" width="2582" height="1235"/></clipPath><clipPath id="clip15"><rect x="1866" y="105" width="2582" height="1235"/></clipPath><clipPath id="clip16"><rect x="1866" y="105" width="2582" height="1235"/></clipPath><clipPath id="clip17"><rect x="1866" y="105" width="2582" height="1235"/></clipPath><clipPath id="clip18"><rect x="1866" y="105" width="2582" height="1235"/></clipPath><clipPath id="clip19"><rect x="1866" y="105" width="2582" height="1235"/></clipPath><clipPath id="clip20"><rect x="1866" y="105" width="2582" height="1235"/></clipPath><clipPath id="clip21"><rect x="1866" y="105" width="2582" height="1235"/></clipPath><clipPath id="clip22"><rect x="1866" y="105" width="2582" height="1235"/></clipPath><clipPath id="clip23"><rect x="1866" y="105" width="2582" height="1235"/></clipPath><clipPath id="clip24"><rect x="1866" y="105" width="2582" height="1235"/></clipPath><clipPath id="clip25"><rect x="1866" y="105" width="2582" height="1235"/></clipPath><clipPath id="clip26"><rect x="1866" y="105" width="2582" height="1235"/></clipPath><clipPath id="clip27"><rect x="1866" y="105" width="2582" height="1235"/></clipPath></defs><g clip-path="url(#clip0)" transform="translate(-1866 -104)"><rect x="1867" y="105" width="2581" height="1236" fill="#FFFFFF"/><g clip-path="url(#clip1)"><path d="M2258.5 1012.53 4353.5 1012.53M2258.5 927.531 4353.5 927.531M2258.5 841.528 4353.5 841.528M2258.5 755.525 4353.5 755.525M2258.5 670.522 4353.5 670.522M2258.5 584.519 4353.5 584.519M2258.5 499.517 4353.5 499.517M2258.5 413.514 4353.5 413.514M2258.5 328.5 4353.5 328.5" stroke="#D9D9D9" stroke-width="3.4375" stroke-linejoin="round" stroke-miterlimit="10" fill="none"/></g><g clip-path="url(#clip2)"><path d="M2607.59 302.5 2607.59 1098.5M2956.6 302.5 2956.6 1098.5M3306.61 302.5 3306.61 1098.5M3655.62 302.5 3655.62 1098.5M4004.63 302.5 4004.63 1098.5M4353.5 302.5 4353.5 1098.5" stroke="#D9D9D9" stroke-width="3.4375" stroke-linejoin="round" stroke-miterlimit="10" fill="none"/></g><g clip-path="url(#clip3)"><path d="M0 0 0.000360892 796" stroke="#BFBFBF" stroke-width="3.4375" stroke-linejoin="round" stroke-miterlimit="10" fill="none" fill-rule="evenodd" transform="matrix(1 0 0 -1 2258.5 1098.5)"/></g><g clip-path="url(#clip4)"><path d="M2258.5 1098.5 4353.5 1098.5" stroke="#BFBFBF" stroke-width="3.4375" stroke-linejoin="round" stroke-miterlimit="10" fill="none" fill-rule="evenodd"/></g><g clip-path="url(#clip5)"><path d="M2276.5 302.5C2282.32 303.476 2288.14 304.446 2293.95 305.428 2299.77 306.41 2305.59 307.398 2311.41 308.392 2317.23 309.385 2323.04 310.386 2328.86 311.392 2334.68 312.398 2340.5 313.411 2346.32 314.43 2352.13 315.448 2357.95 316.473 2363.77 317.505 2369.59 318.536 2375.41 319.573 2381.22 320.617 2387.04 321.661 2392.86 322.712 2398.68 323.768 2404.49 324.825 2410.31 325.889 2416.13 326.959 2421.95 328.028 2427.77 329.104 2433.58 330.188 2439.4 331.271 2445.22 332.36 2451.04 333.457 2456.86 334.553 2462.67 335.656 2468.49 336.766 2474.31 337.876 2480.13 338.993 2485.95 340.116 2491.76 341.24 2497.58 342.37 2503.4 343.508 2509.22 344.645 2515.04 345.789 2520.85 346.941 2526.67 348.092 2532.49 349.251 2538.31 350.417 2544.12 351.582 2549.94 352.755 2555.76 353.935 2561.58 355.115 2567.4 356.302 2573.21 357.497 2579.03 358.691 2584.85 359.893 2590.67 361.102 2596.49 362.311 2602.3 363.528 2608.12 364.753 2613.94 365.976 2619.76 367.208 2625.58 368.448 2631.39 369.687 2637.21 370.934 2643.03 372.188 2648.85 373.443 2654.67 374.705 2660.48 375.975 2666.3 377.245 2672.12 378.522 2677.94 379.808 2683.76 381.094 2689.57 382.388 2695.39 383.689 2701.21 384.991 2707.03 386.3 2712.84 387.618 2718.66 388.935 2724.48 390.26 2730.3 391.594 2736.12 392.928 2741.93 394.27 2747.75 395.621 2753.57 396.971 2759.39 398.329 2765.21 399.696 2771.02 401.063 2776.84 402.438 2782.66 403.822 2788.48 405.205 2794.3 406.597 2800.11 407.998 2805.93 409.399 2811.75 410.809 2817.57 412.227 2823.39 413.645 2829.2 415.071 2835.02 416.507 2840.84 417.942 2846.66 419.386 2852.47 420.84 2858.29 422.293 2864.11 423.755 2869.93 425.226 2875.75 426.697 2881.56 428.177 2887.38 429.667 2893.2 431.156 2899.02 432.654 2904.84 434.162 2910.65 435.669 2916.47 437.186 2922.29 438.712 2928.11 440.238 2933.93 441.774 2939.74 443.319 2945.56 444.864 2951.38 446.418 2957.2 447.982 2963.02 449.546 2968.83 451.12 2974.65 452.703 2980.47 454.287 2986.29 455.879 2992.11 457.482 2997.92 459.085 3003.74 460.698 3009.56 462.32 3015.38 463.943 3021.19 465.575 3027.01 467.218 3032.83 468.861 3038.65 470.513 3044.47 472.176 3050.28 473.839 3056.1 475.511 3061.92 477.195 3067.74 478.878 3073.56 480.572 3079.37 482.276 3085.19 483.98 3091.01 485.694 3096.83 487.419 3102.65 489.144 3108.46 490.88 3114.28 492.627 3120.1 494.373 3125.92 496.13 3131.74 497.898 3137.55 499.665 3143.37 501.444 3149.19 503.234 3155.01 505.023 3160.83 506.824 3166.64 508.635 3172.46 510.447 3178.28 512.27 3184.1 514.104 3189.91 515.938 3195.73 517.783 3201.55 519.64 3207.37 521.496 3213.19 523.365 3219 525.244 3224.82 527.123 3230.64 529.014 3236.46 530.917 3242.28 532.82 3248.09 534.734 3253.91 536.66 3259.73 538.586 3265.55 540.524 3271.37 542.474 3277.18 544.424 3283 546.385 3288.82 548.36 3294.64 550.333 3300.46 552.319 3306.27 554.318 3312.09 556.316 3317.91 558.326 3323.73 560.349 3329.54 562.372 3335.36 564.407 3341.18 566.455 3347 568.503 3352.82 570.563 3358.63 572.636 3364.45 574.709 3370.27 576.795 3376.09 578.894 3381.91 580.992 3387.72 583.103 3393.54 585.228 3399.36 587.352 3405.18 589.49 3411 591.64 3416.81 593.791 3422.63 595.955 3428.45 598.132 3434.27 600.309 3440.09 602.499 3445.9 604.703 3451.72 606.907 3457.54 609.124 3463.36 611.356 3469.17 613.587 3474.99 615.831 3480.81 618.09 3486.63 620.349 3492.45 622.621 3498.27 624.908 3504.08 627.194 3509.9 629.495 3515.72 631.809 3521.54 634.124 3527.35 636.453 3533.17 638.796 3538.99 641.139 3544.81 643.497 3550.63 645.869 3556.44 648.24 3562.26 650.627 3568.08 653.028 3573.9 655.429 3579.72 657.846 3585.53 660.276 3591.35 662.707 3597.17 665.153 3602.99 667.614 3608.81 670.075 3614.62 672.551 3620.44 675.042 3626.26 677.533 3632.08 680.039 3637.9 682.561 3643.71 685.083 3649.53 687.62 3655.35 690.173 3661.17 692.726 3666.98 695.295 3672.8 697.879 3678.62 700.464 3684.44 703.064 3690.26 705.68 3696.07 708.296 3701.89 710.928 3707.71 713.577 3713.53 716.226 3719.35 718.89 3725.16 721.571 3730.98 724.252 3736.8 726.95 3742.62 729.664 3748.44 732.378 3754.25 735.109 3760.07 737.857 3765.89 740.604 3771.71 743.369 3777.53 746.15 3783.34 748.932 3789.16 751.73 3794.98 754.546 3800.8 757.362 3806.62 760.195 3812.43 763.046 3818.25 765.896 3824.07 768.764 3829.89 771.65 3835.7 774.535 3841.52 777.438 3847.34 780.36 3853.16 783.281 3858.98 786.22 3864.79 789.177 3870.61 792.134 3876.43 795.11 3882.25 798.104 3888.07 801.097 3893.88 804.109 3899.7 807.14 3905.52 810.17 3911.34 813.219 3917.16 816.287 3922.97 819.355 3928.79 822.441 3934.61 825.547 3940.43 828.653 3946.25 831.778 3952.06 834.922 3957.88 838.066 3963.7 841.229 3969.52 844.412 3975.33 847.594 3981.15 850.796 3986.97 854.019 3992.79 857.241 3998.61 860.482 4004.42 863.744 4010.24 867.006 4016.06 870.287 4021.88 873.589 4027.7 876.891 4033.51 880.213 4039.33 883.556 4045.15 886.898 4050.97 890.261 4056.79 893.645 4062.6 897.029 4068.42 900.433 4074.24 903.859 4080.06 907.284 4085.88 910.73 4091.69 914.198 4097.51 917.666 4103.33 921.155 4109.15 924.665 4114.96 928.176 4120.78 931.707 4126.6 935.261 4132.42 938.815 4138.24 942.39 4144.06 945.988 4149.87 949.585 4155.69 953.205 4161.51 956.847 4167.33 960.489 4173.14 964.152 4178.96 967.839 4184.78 971.526 4190.6 975.235 4196.42 978.968 4202.23 982.7 4208.05 986.455 4213.87 990.233 4219.69 994.011 4225.51 997.812 4231.32 1001.64 4237.14 1005.46 4242.96 1009.31 4248.78 1013.18 4254.6 1017.05 4260.41 1020.95 4266.23 1024.87 4272.05 1028.79 4277.87 1032.73 4283.69 1036.7 4289.5 1040.67 4295.32 1044.66 4301.14 1048.68 4306.96 1052.69 4312.77 1056.73 4318.59 1060.8 4324.41 1064.87 4330.23 1068.96 4336.05 1073.08 4341.86 1077.19 4347.68 1081.36 4353.5 1085.5" stroke="#4472C4" stroke-width="9.16667" stroke-linecap="round" stroke-linejoin="round" stroke-miterlimit="10" stroke-dasharray="27.5 36.6667" fill="none"/></g><g clip-path="url(#clip6)"><text fill="#595959" font-family="Calibri,Calibri_MSFontService,sans-serif" font-weight="400" font-size="41" transform="matrix(1 0 0 1 2126.37 1110)">$0.00</text></g><g clip-path="url(#clip7)"><text fill="#595959" font-family="Calibri,Calibri_MSFontService,sans-serif" font-weight="400" font-size="41" transform="matrix(1 0 0 1 2032.48 1024)">$10,000.00</text></g><g clip-path="url(#clip8)"><text fill="#595959" font-family="Calibri,Calibri_MSFontService,sans-serif" font-weight="400" font-size="41" transform="matrix(1 0 0 1 2032.48 939)">$20,000.00</text></g><g clip-path="url(#clip9)"><text fill="#595959" font-family="Calibri,Calibri_MSFontService,sans-serif" font-weight="400" font-size="41" transform="matrix(1 0 0 1 2032.48 853)">$30,000.00</text></g><g clip-path="url(#clip10)"><text fill="#595959" font-family="Calibri,Calibri_MSFontService,sans-serif" font-weight="400" font-size="41" transform="matrix(1 0 0 1 2032.48 767)">$40,000.00</text></g><g clip-path="url(#clip11)"><text fill="#595959" font-family="Calibri,Calibri_MSFontService,sans-serif" font-weight="400" font-size="41" transform="matrix(1 0 0 1 2032.48 682)">$50,000.00</text></g><g clip-path="url(#clip12)"><text fill="#595959" font-family="Calibri,Calibri_MSFontService,sans-serif" font-weight="400" font-size="41" transform="matrix(1 0 0 1 2032.48 596)">$60,000.00</text></g><g clip-path="url(#clip13)"><text fill="#595959" font-family="Calibri,Calibri_MSFontService,sans-serif" font-weight="400" font-size="41" transform="matrix(1 0 0 1 2032.48 511)">$70,000.00</text></g><g clip-path="url(#clip14)"><text fill="#595959" font-family="Calibri,Calibri_MSFontService,sans-serif" font-weight="400" font-size="41" transform="matrix(1 0 0 1 2032.48 425)">$80,000.00</text></g><g clip-path="url(#clip15)"><text fill="#595959" font-family="Calibri,Calibri_MSFontService,sans-serif" font-weight="400" font-size="41" transform="matrix(1 0 0 1 2032.48 340)">$90,000.00</text></g><g clip-path="url(#clip16)"><text fill="#595959" font-family="Calibri,Calibri_MSFontService,sans-serif" font-weight="400" font-size="41" transform="matrix(1 0 0 1 2248.19 1163)">0</text></g><g clip-path="url(#clip17)"><text fill="#595959" font-family="Calibri,Calibri_MSFontService,sans-serif" font-weight="400" font-size="41" transform="matrix(1 0 0 1 2586.96 1163)">20</text></g><g clip-path="url(#clip18)"><text fill="#595959" font-family="Calibri,Calibri_MSFontService,sans-serif" font-weight="400" font-size="41" transform="matrix(1 0 0 1 2936.19 1163)">40</text></g><g clip-path="url(#clip19)"><text fill="#595959" font-family="Calibri,Calibri_MSFontService,sans-serif" font-weight="400" font-size="41" transform="matrix(1 0 0 1 3285.41 1163)">60</text></g><g clip-path="url(#clip20)"><text fill="#595959" font-family="Calibri,Calibri_MSFontService,sans-serif" font-weight="400" font-size="41" transform="matrix(1 0 0 1 3634.63 1163)">80</text></g><g clip-path="url(#clip21)"><text fill="#595959" font-family="Calibri,Calibri_MSFontService,sans-serif" font-weight="400" font-size="41" transform="matrix(1 0 0 1 3973.41 1163)">100</text></g><g clip-path="url(#clip22)"><text fill="#595959" font-family="Calibri,Calibri_MSFontService,sans-serif" font-weight="400" font-size="41" transform="matrix(1 0 0 1 4322.63 1163)">120</text></g><g clip-path="url(#clip23)"><text fill="#595959" font-family="Times New Roman,Times New Roman_MSFontService,sans-serif" font-weight="400" font-size="83" transform="matrix(6.12323e-17 -1 1 6.12323e-17 2000.85 938)">Saldo insoluto</text></g><g clip-path="url(#clip24)"><text fill="#595959" font-family="Times New Roman,Times New Roman_MSFontService,sans-serif" font-weight="400" font-size="83" transform="matrix(1 0 0 1 3132.2 1265)">Quincenas</text></g><g clip-path="url(#clip25)"><text fill="#595959" font-family="Times New Roman,Times New Roman_MSFontService,sans-serif" font-weight="700" font-size="92" transform="matrix(1 0 0 1 2742.33 226)">Evolución del crédito</text></g><g clip-path="url(#clip26)"><path d="M3991.5 412.5 4106.5 412.5" stroke="#4472C4" stroke-width="9.16667" stroke-linecap="round" stroke-linejoin="round" stroke-miterlimit="10" stroke-dasharray="27.5 36.6667" fill="none" fill-rule="evenodd"/></g><g clip-path="url(#clip27)"><text fill="#595959" font-family="Calibri,Calibri_MSFontService,sans-serif" font-weight="400" font-size="41" transform="matrix(1 0 0 1 4119.25 424)">Curva estimada</text></g><rect x="1867.5" y="105.5" width="2581" height="1236" stroke="#D9D9D9" stroke-width="3.4375" stroke-linejoin="round" stroke-miterlimit="10" fill="none"/></g></svg>