<svg width="2585" height="1256" xmlns="http://www.w3.org/2000/svg" xmlns:xlink="http://www.w3.org/1999/xlink" overflow="hidden"><defs><clipPath id="clip0"><rect x="864" y="1853" width="2585" height="1256"/></clipPath><clipPath id="clip1"><rect x="865" y="1854" width="2581" height="1253"/></clipPath><clipPath id="clip2"><rect x="865" y="1854" width="2581" height="1253"/></clipPath><clipPath id="clip3"><rect x="865" y="1854" width="2581" height="1253"/></clipPath><clipPath id="clip4"><rect x="865" y="1854" width="2581" height="1253"/></clipPath><clipPath id="clip5"><rect x="1257" y="2054" width="2098" height="810"/></clipPath><clipPath id="clip6"><rect x="865" y="1854" width="2581" height="1253"/></clipPath><clipPath id="clip7"><rect x="865" y="1854" width="2581" height="1253"/></clipPath><clipPath id="clip8"><rect x="865" y="1854" width="2581" height="1253"/></clipPath><clipPath id="clip9"><rect x="865" y="1854" width="2581" height="1253"/></clipPath><clipPath id="clip10"><rect x="865" y="1854" width="2581" height="1253"/></clipPath><clipPath id="clip11"><rect x="865" y="1854" width="2581" height="1253"/></clipPath><clipPath id="clip12"><rect x="865" y="1854" width="2581" height="1253"/></clipPath><clipPath id="clip13"><rect x="865" y="1854" width="2581" height="1253"/></clipPath><clipPath id="clip14"><rect x="865" y="1854" width="2581" height="1253"/></clipPath><clipPath id="clip15"><rect x="865" y="1854" width="2581" height="1253"/></clipPath><clipPath id="clip16"><rect x="865" y="1854" width="2581" height="1253"/></clipPath><clipPath id="clip17"><rect x="865" y="1854" width="2581" height="1253"/></clipPath><clipPath id="clip18"><rect x="865" y="1854" width="2581" height="1253"/></clipPath><clipPath id="clip19"><rect x="865" y="1854" width="2581" height="1253"/></clipPath><clipPath id="clip20"><rect x="865" y="1854" width="2581" height="1253"/></clipPath><clipPath id="clip21"><rect x="865" y="1854" width="2581" height="1253"/></clipPath><clipPath id="clip22"><rect x="865" y="1854" width="2581" height="1253"/></clipPath><clipPath id="clip23"><rect x="865" y="1854" width="2581" height="1253"/></clipPath><clipPath id="clip24"><rect x="865" y="1854" width="2581" height="1253"/></clipPath></defs><g clip-path="url(#clip0)" transform="translate(-864 -1853)"><rect x="865" y="1854" width="2582" height="1253" fill="#FFFFFF"/><g clip-path="url(#clip1)"><path d="M1257.5 2726.59 3352.5 2726.59M1257.5 2592.59 3352.5 2592.59M1257.5 2457.58 3352.5 2457.58M1257.5 2323.58 3352.5 2323.58M1257.5 2188.57 3352.5 2188.57M1257.5 2054.5 3352.5 2054.5" stroke="#D9D9D9" stroke-width="3.4375" stroke-linejoin="round" stroke-miterlimit="10" fill="none"/></g><g clip-path="url(#clip2)"><path d="M1606.55 2054.5 1606.55 2861.5M1955.56 2054.5 1955.56 2861.5M2304.58 2054.5 2304.58 2861.5M2653.59 2054.5 2653.59 2861.5M3003.6 2054.5 3003.6 2861.5M3352.5 2054.5 3352.5 2861.5" stroke="#D9D9D9" stroke-width="3.4375" stroke-linejoin="round" stroke-miterlimit="10" fill="none"/></g><g clip-path="url(#clip3)"><path d="M0 0 0.000360892 807" stroke="#BFBFBF" stroke-width="3.4375" stroke-linejoin="round" stroke-miterlimit="10" fill="none" fill-rule="evenodd" transform="matrix(1 0 0 -1 1257.5 2861.5)"/></g><g clip-path="url(#clip4)"><path d="M1257.5 2861.5 3352.5 2861.5" stroke="#BFBFBF" stroke-width="3.4375" stroke-linejoin="round" stroke-miterlimit="10" fill="none" fill-rule="evenodd"/></g><g clip-path="url(#clip5)"><path d="M1274.5 2090.5C1280.32 2091.45 1286.14 2092.39 1291.96 2093.34 1297.78 2094.29 1303.6 2095.25 1309.42 2096.21 1315.24 2097.17 1321.07 2098.14 1326.89 2099.12 1332.71 2100.09 1338.53 2101.08 1344.35 2102.06 1350.17 2103.05 1355.99 2104.04 1361.81 2105.04 1367.63 2106.04 1373.45 2107.05 1379.27 2108.06 1385.09 2109.07 1390.91 2110.09 1396.74 2111.12 1402.56 2112.14 1408.38 2113.17 1414.2 2114.21 1420.02 2115.25 1425.84 2116.29 1431.66 2117.34 1437.48 2118.39 1443.3 2119.44 1449.12 2120.51 1454.94 2121.57 1460.76 2122.64 1466.58 2123.72 1472.4 2124.79 1478.23 2125.87 1484.05 2126.96 1489.87 2128.05 1495.69 2129.15 1501.51 2130.25 1507.33 2131.35 1513.15 2132.46 1518.97 2133.58 1524.79 2134.69 1530.61 2135.82 1536.43 2136.95 1542.25 2138.08 1548.07 2139.21 1553.9 2140.36 1559.72 2141.5 1565.54 2142.65 1571.36 2143.81 1577.18 2144.97 1583 2146.13 1588.82 2147.31 1594.64 2148.48 1600.46 2149.66 1606.28 2150.84 1612.1 2152.03 1617.92 2153.22 1623.74 2154.43 1629.56 2155.63 1635.39 2156.84 1641.21 2158.05 1647.03 2159.27 1652.85 2160.49 1658.67 2161.72 1664.49 2162.95 1670.31 2164.19 1676.13 2165.44 1681.95 2166.68 1687.77 2167.94 1693.59 2169.2 1699.41 2170.46 1705.23 2171.73 1711.05 2173.01 1716.88 2174.29 1722.7 2175.57 1728.52 2176.86 1734.34 2178.16 1740.16 2179.46 1745.98 2180.77 1751.8 2182.07 1757.62 2183.39 1763.44 2184.72 1769.26 2186.04 1775.08 2187.37 1780.9 2188.72 1786.72 2190.06 1792.54 2191.41 1798.37 2192.76 1804.19 2194.12 1810.01 2195.49 1815.83 2196.86 1821.65 2198.24 1827.47 2199.62 1833.29 2201.01 1839.11 2202.4 1844.93 2203.8 1850.75 2205.21 1856.57 2206.62 1862.39 2208.04 1868.21 2209.46 1874.03 2210.89 1879.86 2212.32 1885.68 2213.77 1891.5 2215.21 1897.32 2216.66 1903.14 2218.13 1908.96 2219.59 1914.78 2221.06 1920.6 2222.54 1926.42 2224.02 1932.24 2225.5 1938.06 2227 1943.88 2228.5 1949.7 2230.01 1955.53 2231.52 1961.35 2233.04 1967.17 2234.56 1972.99 2236.1 1978.81 2237.63 1984.63 2239.18 1990.45 2240.73 1996.27 2242.28 2002.09 2243.85 2007.91 2245.42 2013.73 2246.99 2019.55 2248.58 2025.37 2250.17 2031.19 2251.76 2037.02 2253.36 2042.84 2254.97 2048.66 2256.59 2054.48 2258.21 2060.3 2259.84 2066.12 2261.47 2071.94 2263.11 2077.76 2264.77 2083.58 2266.42 2089.4 2268.08 2095.22 2269.75 2101.04 2271.42 2106.86 2273.11 2112.69 2274.8 2118.51 2276.49 2124.33 2278.19 2130.15 2279.91 2135.97 2281.62 2141.79 2283.35 2147.61 2285.08 2153.43 2286.82 2159.25 2288.56 2165.07 2290.32 2170.89 2292.07 2176.71 2293.84 2182.53 2295.62 2188.35 2297.4 2194.18 2299.18 2200 2300.98 2205.82 2302.78 2211.64 2304.59 2217.46 2306.42 2223.28 2308.24 2229.1 2310.07 2234.92 2311.92 2240.74 2313.76 2246.56 2315.62 2252.38 2317.48 2258.2 2319.35 2264.02 2321.23 2269.84 2323.12 2275.67 2325.01 2281.49 2326.91 2287.31 2328.82 2293.13 2330.74 2298.95 2332.66 2304.77 2334.6 2310.59 2336.54 2316.41 2338.48 2322.23 2340.45 2328.05 2342.41 2333.87 2344.38 2339.69 2346.36 2345.51 2348.35 2351.33 2350.35 2357.16 2352.36 2362.98 2354.36 2368.8 2356.39 2374.62 2358.42 2380.44 2360.46 2386.26 2362.5 2392.08 2364.56 2397.9 2366.62 2403.72 2368.69 2409.54 2370.78 2415.36 2372.86 2421.18 2374.96 2427 2377.07 2432.82 2379.18 2438.65 2381.3 2444.47 2383.44 2450.29 2385.58 2456.11 2387.73 2461.93 2389.89 2467.75 2392.05 2473.57 2394.23 2479.39 2396.42 2485.21 2398.61 2491.03 2400.81 2496.85 2403.03 2502.67 2405.24 2508.49 2407.47 2514.32 2409.72 2520.14 2411.96 2525.96 2414.22 2531.78 2416.49 2537.6 2418.76 2543.42 2421.04 2549.24 2423.34 2555.06 2425.64 2560.88 2427.96 2566.7 2430.28 2572.52 2432.61 2578.34 2434.95 2584.16 2437.31 2589.98 2439.67 2595.81 2442.04 2601.63 2444.42 2607.45 2446.81 2613.27 2449.21 2619.09 2451.62 2624.91 2454.04 2630.73 2456.47 2636.55 2458.91 2642.37 2461.36 2648.19 2463.82 2654.01 2466.29 2659.83 2468.76 2665.65 2471.25 2671.48 2473.76 2677.3 2476.27 2683.12 2478.79 2688.94 2481.32 2694.76 2483.86 2700.58 2486.41 2706.4 2488.98 2712.22 2491.54 2718.04 2494.13 2723.86 2496.73 2729.68 2499.32 2735.5 2501.94 2741.32 2504.57 2747.14 2507.2 2752.97 2509.85 2758.79 2512.51 2764.61 2515.18 2770.43 2517.86 2776.25 2520.55 2782.07 2523.25 2787.89 2525.96 2793.71 2528.69 2799.53 2531.42 2805.35 2534.17 2811.17 2536.93 2816.99 2539.69 2822.81 2542.47 2828.63 2545.27 2834.46 2548.07 2840.28 2550.88 2846.1 2553.71 2851.92 2556.54 2857.74 2559.39 2863.56 2562.26 2869.38 2565.13 2875.2 2568.01 2881.02 2570.91 2886.84 2573.81 2892.66 2576.73 2898.48 2579.67 2904.3 2582.61 2910.12 2585.56 2915.95 2588.54 2921.77 2591.51 2927.59 2594.5 2933.41 2597.51 2939.23 2600.53 2945.05 2603.55 2950.87 2606.6 2956.69 2609.65 2962.51 2612.72 2968.33 2615.8 2974.15 2618.89 2979.97 2621.99 2985.79 2625.11 2991.61 2628.24 2997.44 2631.38 3003.26 2634.54 3009.08 2637.7 3014.9 2640.88 3020.72 2644.08 3026.54 2647.28 3032.36 2650.51 3038.18 2653.75 3044 2656.99 3049.82 2660.25 3055.64 2663.53 3061.46 2666.81 3067.28 2670.11 3073.1 2673.43 3078.93 2676.75 3084.75 2680.09 3090.57 2683.45 3096.39 2686.81 3102.21 2690.19 3108.03 2693.59 3113.85 2697 3119.67 2700.42 3125.49 2703.87 3131.31 2707.31 3137.13 2710.78 3142.95 2714.26 3148.77 2717.75 3154.6 2721.26 3160.42 2724.79 3166.24 2728.32 3172.06 2731.87 3177.88 2735.45 3183.7 2739.02 3189.52 2742.61 3195.34 2746.23 3201.16 2749.85 3206.98 2753.49 3212.8 2757.15 3218.62 2760.81 3224.44 2764.5 3230.26 2768.21 3236.08 2771.91 3241.91 2775.64 3247.73 2779.4 3253.55 2783.15 3259.37 2786.93 3265.19 2790.73 3271.01 2794.53 3276.83 2798.35 3282.65 2802.2 3288.47 2806.04 3294.29 2809.91 3300.11 2813.8 3305.93 2817.7 3311.75 2821.62 3317.58 2825.56 3323.4 2829.5 3329.22 2833.47 3335.04 2837.46 3340.86 2841.45 3346.68 2845.48 3352.5 2849.5" stroke="#FF0000" stroke-width="9.16667" stroke-linecap="round" stroke-linejoin="round" stroke-miterlimit="10" stroke-dasharray="27.5 36.6667" fill="none"/></g><g clip-path="url(#clip6)"><text fill="#595959" font-family="Calibri,Calibri_MSFontService,sans-serif" font-weight="400" font-size="41" transform="matrix(1 0 0 1 1124.91 2873)">$0.00</text></g><g clip-path="url(#clip7)"><text fill="#595959" font-family="Calibri,Calibri_MSFontService,sans-serif" font-weight="400" font-size="41" transform="matrix(1 0 0 1 1083.11 2738)">$200.00</text></g><g clip-path="url(#clip8)"><text fill="#595959" font-family="Calibri,Calibri_MSFontService,sans-serif" font-weight="400" font-size="41" transform="matrix(1 0 0 1 1083.11 2604)">$400.00</text></g><g clip-path="url(#clip9)"><text fill="#595959" font-family="Calibri,Calibri_MSFontService,sans-serif" font-weight="400" font-size="41" transform="matrix(1 0 0 1 1083.11 2469)">$600.00</text></g><g clip-path="url(#clip10)"><text fill="#595959" font-family="Calibri,Calibri_MSFontService,sans-serif" font-weight="400" font-size="41" transform="matrix(1 0 0 1 1083.11 2335)">$800.00</text></g><g clip-path="url(#clip11)"><text fill="#595959" font-family="Calibri,Calibri_MSFontService,sans-serif" font-weight="400" font-size="41" transform="matrix(1 0 0 1 1051.92 2200)">$1,000.00</text></g><g clip-path="url(#clip12)"><text fill="#595959" font-family="Calibri,Calibri_MSFontService,sans-serif" font-weight="400" font-size="41" transform="matrix(1 0 0 1 1051.92 2066)">$1,200.00</text></g><g clip-path="url(#clip13)"><text fill="#595959" font-family="Calibri,Calibri_MSFontService,sans-serif" font-weight="400" font-size="41" transform="matrix(1 0 0 1 1246.73 2927)">0</text></g><g clip-path="url(#clip14)"><text fill="#595959" font-family="Calibri,Calibri_MSFontService,sans-serif" font-weight="400" font-size="41" transform="matrix(1 0 0 1 1585.51 2927)">20</text></g><g clip-path="url(#clip15)"><text fill="#595959" font-family="Calibri,Calibri_MSFontService,sans-serif" font-weight="400" font-size="41" transform="matrix(1 0 0 1 1934.73 2927)">40</text></g><g clip-path="url(#clip16)"><text fill="#595959" font-family="Calibri,Calibri_MSFontService,sans-serif" font-weight="400" font-size="41" transform="matrix(1 0 0 1 2283.95 2927)">60</text></g><g clip-path="url(#clip17)"><text fill="#595959" font-family="Calibri,Calibri_MSFontService,sans-serif" font-weight="400" font-size="41" transform="matrix(1 0 0 1 2633.18 2927)">80</text></g><g clip-path="url(#clip18)"><text fill="#595959" font-family="Calibri,Calibri_MSFontService,sans-serif" font-weight="400" font-size="41" transform="matrix(1 0 0 1 2971.95 2927)">100</text></g><g clip-path="url(#clip19)"><text fill="#595959" font-family="Calibri,Calibri_MSFontService,sans-serif" font-weight="400" font-size="41" transform="matrix(1 0 0 1 3321.17 2927)">120</text></g><g clip-path="url(#clip20)"><text fill="#595959" font-family="Times New Roman,Times New Roman_MSFontService,sans-serif" font-weight="400" font-size="83" transform="matrix(6.12323e-17 -1 1 6.12323e-17 1020.3 2604)">Intereses</text></g><g clip-path="url(#clip21)"><text fill="#595959" font-family="Times New Roman,Times New Roman_MSFontService,sans-serif" font-weight="400" font-size="83" transform="matrix(1 0 0 1 2130.74 3029)">Quincenas</text></g><g clip-path="url(#clip22)"><text fill="#595959" font-family="Times New Roman,Times New Roman_MSFontService,sans-serif" font-weight="700" font-size="92" transform="matrix(1 0 0 1 1740.88 1975)">Evolución del crédito</text></g><g clip-path="url(#clip23)"><path d="M3042.5 2165.5 3157.5 2165.5" stroke="#FF0000" stroke-width="9.16667" stroke-linecap="round" stroke-linejoin="round" stroke-miterlimit="10" stroke-dasharray="27.5 36.6667" fill="none" fill-rule="evenodd"/></g><g clip-path="url(#clip24)"><text fill="#595959" font-family="Calibri,Calibri_MSFontService,sans-serif" font-weight="400" font-size="41" transform="matrix(1 0 0 1 3170.65 2177)">Intereses…</text></g><rect x="865.5" y="1854.5" width="2582" height="1253" stroke="#D9D9D9" stroke-width="3.4375" stroke-linejoin="round" stroke-miterlimit="10" fill="none"/></g></svg>